<mxfile host="app.diagrams.net" agent="Mozilla/5.0 (Macintosh; Intel Mac OS X 10_15_7) AppleWebKit/537.36 (KHTML, like Gecko) Chrome/131.0.0.0 Safari/537.36" version="24.9.3">
  <diagram name="Page-1" id="F_GA5Zd3AwGfU_yg1PEx">
    <mxGraphModel dx="1659" dy="924" grid="1" gridSize="10" guides="1" tooltips="1" connect="1" arrows="1" fold="1" page="1" pageScale="1" pageWidth="827" pageHeight="1169" background="none" math="0" shadow="0">
      <root>
        <mxCell id="0" />
        <mxCell id="1" parent="0" />
        <mxCell id="TXme7w6yW-L-Vb8iFCtD-13" value="&lt;font color=&quot;#ea6b66&quot;&gt;QA/UAT&lt;/font&gt;" style="rounded=0;whiteSpace=wrap;html=1;dashed=1;strokeColor=#EA6B66;align=right;verticalAlign=top;" vertex="1" parent="1">
          <mxGeometry x="280" y="270" width="160" height="280" as="geometry" />
        </mxCell>
        <mxCell id="TXme7w6yW-L-Vb8iFCtD-1" value="Main branch&lt;div&gt;(remote)&lt;/div&gt;" style="rounded=0;whiteSpace=wrap;html=1;fontSize=15;" vertex="1" parent="1">
          <mxGeometry x="40" y="40" width="80" height="560" as="geometry" />
        </mxCell>
        <mxCell id="TXme7w6yW-L-Vb8iFCtD-3" value="&lt;font color=&quot;#97d077&quot;&gt;DEV&lt;/font&gt;" style="rounded=0;whiteSpace=wrap;html=1;strokeColor=#97D077;dashed=1;align=right;horizontal=1;verticalAlign=top;" vertex="1" parent="1">
          <mxGeometry x="280" y="65" width="160" height="175" as="geometry" />
        </mxCell>
        <mxCell id="TXme7w6yW-L-Vb8iFCtD-5" value="Feature/Bugfix branches" style="rounded=0;whiteSpace=wrap;html=1;" vertex="1" parent="1">
          <mxGeometry x="300" y="120" width="120" height="60" as="geometry" />
        </mxCell>
        <mxCell id="TXme7w6yW-L-Vb8iFCtD-19" style="edgeStyle=orthogonalEdgeStyle;rounded=0;orthogonalLoop=1;jettySize=auto;html=1;exitX=1.003;exitY=0.444;exitDx=0;exitDy=0;entryX=0.5;entryY=0;entryDx=0;entryDy=0;exitPerimeter=0;" edge="1" parent="1" source="TXme7w6yW-L-Vb8iFCtD-6" target="TXme7w6yW-L-Vb8iFCtD-14">
          <mxGeometry relative="1" as="geometry">
            <Array as="points">
              <mxPoint x="360" y="298" />
            </Array>
          </mxGeometry>
        </mxCell>
        <mxCell id="TXme7w6yW-L-Vb8iFCtD-11" value="merge with squash" style="endArrow=classic;html=1;rounded=0;exitX=0.5;exitY=1;exitDx=0;exitDy=0;align=left;verticalAlign=middle;" edge="1" parent="1" source="TXme7w6yW-L-Vb8iFCtD-5">
          <mxGeometry width="50" height="50" relative="1" as="geometry">
            <mxPoint x="390" y="460" as="sourcePoint" />
            <mxPoint x="240" y="210" as="targetPoint" />
            <Array as="points">
              <mxPoint x="360" y="210" />
            </Array>
          </mxGeometry>
        </mxCell>
        <mxCell id="TXme7w6yW-L-Vb8iFCtD-17" value="deploy &amp;amp; test" style="edgeStyle=orthogonalEdgeStyle;rounded=0;orthogonalLoop=1;jettySize=auto;html=1;" edge="1" parent="1" source="TXme7w6yW-L-Vb8iFCtD-14" target="TXme7w6yW-L-Vb8iFCtD-16">
          <mxGeometry relative="1" as="geometry" />
        </mxCell>
        <mxCell id="TXme7w6yW-L-Vb8iFCtD-14" value="Test release branch&lt;div&gt;(remote)&lt;/div&gt;" style="rounded=0;whiteSpace=wrap;html=1;" vertex="1" parent="1">
          <mxGeometry x="300" y="330" width="120" height="60" as="geometry" />
        </mxCell>
        <mxCell id="TXme7w6yW-L-Vb8iFCtD-16" value="If accepted" style="rounded=0;whiteSpace=wrap;html=1;fillColor=#d5e8d4;strokeColor=#82b366;" vertex="1" parent="1">
          <mxGeometry x="300" y="450" width="120" height="30" as="geometry" />
        </mxCell>
        <mxCell id="TXme7w6yW-L-Vb8iFCtD-24" style="edgeStyle=orthogonalEdgeStyle;rounded=0;orthogonalLoop=1;jettySize=auto;html=1;entryX=1.003;entryY=0.853;entryDx=0;entryDy=0;entryPerimeter=0;" edge="1" parent="1" source="TXme7w6yW-L-Vb8iFCtD-16" target="TXme7w6yW-L-Vb8iFCtD-1">
          <mxGeometry relative="1" as="geometry">
            <Array as="points">
              <mxPoint x="360" y="518" />
            </Array>
          </mxGeometry>
        </mxCell>
        <mxCell id="TXme7w6yW-L-Vb8iFCtD-25" value="merge" style="edgeLabel;html=1;align=center;verticalAlign=middle;resizable=0;points=[];" vertex="1" connectable="0" parent="TXme7w6yW-L-Vb8iFCtD-24">
          <mxGeometry x="-0.6191" y="1" relative="1" as="geometry">
            <mxPoint as="offset" />
          </mxGeometry>
        </mxCell>
        <mxCell id="TXme7w6yW-L-Vb8iFCtD-27" style="edgeStyle=orthogonalEdgeStyle;rounded=0;orthogonalLoop=1;jettySize=auto;html=1;entryX=0.5;entryY=0;entryDx=0;entryDy=0;exitX=1.003;exitY=0.09;exitDx=0;exitDy=0;exitPerimeter=0;" edge="1" parent="1" source="TXme7w6yW-L-Vb8iFCtD-6" target="TXme7w6yW-L-Vb8iFCtD-5">
          <mxGeometry relative="1" as="geometry">
            <Array as="points">
              <mxPoint x="240" y="90" />
              <mxPoint x="360" y="90" />
            </Array>
          </mxGeometry>
        </mxCell>
        <mxCell id="TXme7w6yW-L-Vb8iFCtD-6" value="Develop branch&lt;div&gt;(remote)&lt;/div&gt;" style="rounded=0;whiteSpace=wrap;html=1;fontSize=15;" vertex="1" parent="1">
          <mxGeometry x="160" y="40" width="80" height="560" as="geometry" />
        </mxCell>
      </root>
    </mxGraphModel>
  </diagram>
</mxfile>
